<?xml version="1.0" standalone="no"?><!DOCTYPE svg PUBLIC "-//W3C//DTD SVG 1.1//EN" "http://www.w3.org/Graphics/SVG/1.1/DTD/svg11.dtd"><svg class="icon" width="200px" height="200.00px" viewBox="0 0 1024 1024" version="1.1" xmlns="http://www.w3.org/2000/svg"><path fill="#bfbfbf" d="M251.264 682.688H85.312A42.688 42.688 0 0 1 42.688 640V384c0-23.552 19.072-42.688 42.624-42.688h165.952l225.92-184.832A21.312 21.312 0 0 1 512 172.992v678.016a21.312 21.312 0 0 1-34.88 16.512l-225.792-184.832h-0.064zM870.976 512l150.912 150.848-60.352 60.352-150.848-150.848-150.912 150.848-60.288-60.352L750.336 512 599.488 361.152l60.288-60.352 150.912 150.848L961.536 300.8l60.352 60.352L870.976 512z"  /></svg>