<?xml version="1.0" standalone="no"?><!DOCTYPE svg PUBLIC "-//W3C//DTD SVG 1.1//EN" "http://www.w3.org/Graphics/SVG/1.1/DTD/svg11.dtd"><svg class="icon" width="200px" height="200.00px" viewBox="0 0 1024 1024" version="1.1" xmlns="http://www.w3.org/2000/svg"><path fill="#bfbfbf" d="M251.264 682.688H85.312A42.688 42.688 0 0 1 42.688 640V384c0-23.552 19.072-42.688 42.624-42.688h165.952l225.92-184.832A21.312 21.312 0 0 1 512 172.992v678.016a21.312 21.312 0 0 1-34.88 16.512l-225.792-184.832h-0.064z m576.704 176.384l-60.416-60.416A383.04 383.04 0 0 0 896 512a383.232 383.232 0 0 0-140.992-297.28l60.608-60.608A468.288 468.288 0 0 1 981.376 512a468.16 468.16 0 0 1-153.408 347.072z m-151.168-151.168l-60.672-60.672A170.368 170.368 0 0 0 682.688 512c0-60.992-32-114.56-80.256-144.704l61.44-61.44A255.616 255.616 0 0 1 768 512a255.424 255.424 0 0 1-91.2 195.84z"  /></svg>